<svg version="1.2" xmlns="http://www.w3.org/2000/svg" viewBox="0 0 1024 512" width="1024" height="512">
  <path d="m0 0h1024v512h-1024z" fill="#fff" mask="url(#logo-mask)"/>
  <style>.a{fill:#fff}.b{fill:#000}</style>
  <mask id="logo-mask" maskUnits="userSpaceOnUse" x="0" y="0" width="1024" height="512">
    <path class="a" d="m628 122.2c16.9-0.4 33.7 0.2 51-0.1 31-0.4 71.9-3.1 81.5 35 3.2 12.6 1.9 28.3-5 39.6q-2.3 3.7-5.2 6.9-3 3.2-6.5 5.8-3.5 2.6-7.5 4.5-3.9 1.8-8.1 2.9 4.5 8 9.1 16 4.6 7.9 9.2 15.9 4.6 7.9 9.2 15.9 4.6 7.9 9.3 15.8h-28l-7.3 0.1c-10.1-19.2-22.8-41.5-33.6-60.4q-17.8 0.1-35.6 0v60.3h-32.6z"/>
    <path class="b" d="m660.5 149.1h30.8c15.5 0 37-1.7 37.9 20.5 0.3 7.8-0.8 12.4-6.3 18.4-8.8 7-21.9 5.6-32.6 5.6h-29.8z"/>
    <path class="a" d="m511.9 78.5c1.3 1.3 15.3 38.7 17.1 43.5h55.1c-14.7 8.8-29.2 18.1-44.1 26.8l35 88.4c5.2 12.9 12.8 30.5 17 43.2h-33.2l-13.4-35.7c-10-0.3-21.2-0.1-31.3-0.1l-35.3 0.1c-4.6 11.1-9.3 24.3-13.6 35.7h-33.2l52-131.5c-14.3-8.2-29.9-18.2-44.2-26.9h55.2c5.3-14.1 11.2-29.7 16.9-43.5z"/>
    <path class="b" d="m511.7 154.3c0.9 0.7 21 56.7 23.8 63.7q-11.2 0.2-22.5 0.2l-24.1-0.1c6.9-20.7 15.4-43 22.8-63.8z"/>
    <path class="a" d="m263.1 122.2c27.5-0.4 55.2 0.1 82.7 0 14.3 0 31.5 3.8 42.1 14 17.9 17.1 18.1 52.7 0.7 70.3-12.5 12.6-29.5 15-46.4 15.2l-46.7 0.1v58.7l-32.4-0.1z"/>
    <path class="b" d="m295.6 149.1l33 0.1c16.8 0 39.1-2.4 39.9 21.4 0.2 7.5-1.1 12.9-6.3 18.6-8.3 7.2-25 6-35.5 6l-31.2-0.1z"/>
    <path class="a" d="m140.9 119.2c33.9 0 70.8 8.4 71.8 49.2l-33.1 0.6c-1.3-19.2-19-22.6-35-23.1-13-0.3-36.8 1.3-37.3 18.9 0 14.9 18.2 17.1 29.5 19.1 32.5 6.1 80.3 6.2 79.1 51-1.1 41.4-41.9 49.1-76.5 48.5-34.8-1.7-68.6-12-70-52.4 10.6-0.7 22.5-0.6 33.3-0.8 0.8 6.3 2.2 11.7 7 16.4 8.7 8.6 25.3 9.8 37 9.7 9.3-0.1 23.6-1.1 30.5-8.3 3.4-3.4 4.8-7.5 4.6-12.3-0.1-4.5-0.9-8.3-4.4-11.5-15.9-14.6-68.8-7.4-91.7-28.8-7.7-7.2-11-16.8-11.3-27.2-0.3-11.5 3-22.4 11.1-30.9 13.8-14.5 36.3-17.6 55.4-18.1zm773.9 3q19.8-0.1 39.6 0c-21.3 20.7-44.5 45.8-65.3 67.3 11.7 16.9 24.6 34.1 36.6 50.7l29.2 40.2c-12.6 0.1-25.4 0-38.1 0.1-16.4-22-33.8-47.6-49.8-70.3-7.5 7.5-18.2 18.4-25.2 26.2 0.5 14 0.1 30 0.1 44h-32.4v-158.2q16.2-0.1 32.4 0v75.7c17.6-17.6 34.5-36.4 52-54.1 6.3-6.3 14.4-16 20.9-21.6zm-434.3 224.3c2.1-0.1 4.9-0.1 6.9 0.2 27.6 4.4 25.1 60.1-6 56-7.4-0.9-10.1-3.9-14.5-9.2l0.1 10.1v18.7l-9.4-0.1v-74.4l9.3-0.1 0.1 8.5c4-6.4 6.7-7.8 13.5-9.7z"/>
    <path class="b" d="m478.5 354.6c7.4-0.5 14.3 1.9 16.6 9.4 3.5 11.1 2.9 26.1-9.5 30.7-15.2 2.5-19.5-8.4-19-21 0.4-9.4 1.3-16.9 11.9-19.1z"/>
    <path class="a" d="m168.3 324.9h9.2v76.7h-9.1l0.1-8.4c-7.3 10.1-16.6 12.5-27.9 7-19.5-13.8-14.1-56.3 14.3-53.7 5.8 0.5 10.3 4.9 13.5 9.4q0-3.9 0-7.8-0.1-3.8-0.1-7.7 0-3.9 0-7.7 0-3.9 0-7.8z"/>
    <path class="b" d="m150.8 354.6c15.6-1 18.1 6.8 17.7 20.7-0.3 10.2 0.1 16.8-11.8 19.7-8.2 0.4-14.4-2.6-16.7-11-2.9-10.9-1.9-25.7 10.8-29.4z"/>
    <path class="a" d="m797.9 346.6c35.3-3.7 39.4 50.4 8.1 56-17 1.3-28.2-6.2-29.8-24-1.5-16.3 4.8-28.7 21.7-32z"/>
    <path class="b" d="m800 354.1c18.1-2.3 20.9 23.4 14.1 34.8-2.5 4.3-6.4 5.4-10.8 6.3-9 0-15.8-3.6-17.2-12.9-2-12.6-0.7-25.4 13.9-28.2z"/>
    <path class="a" d="m85.1 346.6c9.8-1.1 22.1 2 23.9 12.9 1.7 10.5 0.6 23.6 0.9 34.5h7.6v7.6c-4.6 0.2-10 0.9-13.8-2.3-1.8-1.5-1.6-3.1-2.6-5-5.5 5.5-9.3 8.7-17.7 8.8-5.9 0.1-10.2-1.7-14.4-5.8q-0.8-1.2-1.5-2.4-0.6-1.2-1-2.5-0.5-1.4-0.8-2.7-0.2-1.4-0.3-2.8c-0.6-18.7 23.3-16.8 35.7-16.9-0.3-10.7-4-18.3-17.2-15.6-4.9 1-7.6 4.9-9.8 9.1-1.9-1.3-5.1-3-7.1-4.2 4.1-8.6 9.1-11.1 18.1-12.7z"/>
    <path class="b" d="m91.8 376.7c2.6-0.2 6.4-0.1 9.2-0.1 0.2 12.7-2.1 18.3-16.1 19-11.3-1.5-14.8-11.9-3.8-17.3 2.9-1.5 7.3-1.4 10.7-1.6z"/>
    <path class="a" d="m604.4 346.6q1.8-0.1 3.6-0.1c13.4-0.2 21.2 6.5 21.1 20.2-0.1 9.1-0.1 18.3-0.1 27.3h7.6v7.5c-4.2 0.2-7 0.2-11.1-0.1-3.9-2.6-4.1-3.3-5.3-7.8-8.2 10.8-21.3 13.1-31.8 3.9-2.3-2.8-3.8-6.9-3.8-10.5 0-19 22.4-16.9 35.4-16.9 0.1-11-3.5-18.6-17.3-15.5-4.3 1-7 4.8-8.9 8.7q-3.7-2-7.4-4.1c4.4-8.8 8.5-10.9 18-12.6z"/>
    <path class="b" d="m611 376.7c2.8-0.1 6.2 0 9-0.1 0.1 13-2.1 18.9-16.7 19-7.3-1.6-13.1-7-7.3-14.3 3.4-4.3 9.9-4.3 15-4.6z"/>
    <path class="a" d="m934.6 354.6c4.1-7.4 12.4-11.6 19.8-5.2 5.9 5.2 4.8 18.7 4.8 26.5v25.7l-8.7 0.1c0-13.6 0.6-28.2-0.6-41.7-0.7-8.1-13.4-8-13.9 2.5-0.5 9.9-0.1 19.9-0.1 29.9v9.3l-8.4-0.1c-0.1-7.8 1.5-41.2-2.1-45.3q-0.5-0.4-1-0.8-0.5-0.4-1.1-0.7-0.6-0.2-1.3-0.4-0.6-0.1-1.2-0.1c-9.6-0.2-7.9 16.7-7.9 22.9l0.1 24.4-8.5 0.1-0.1-53.9h8.4l0.2 6.5c3.1-5.1 3.9-6 9.4-7.8 6.6-0.5 9.8 2.3 12.2 8.1zm-723.2-8.1c6.4-0.4 9.5 2 12.3 7.5 10.4-15.1 24.6-6.6 24.2 10.4-0.3 12.2 0 25-0.1 37.3h-8.4c0-7.9 1.6-41.1-2.3-45.3-1.2-1.3-3.6-2.4-5.4-2.4-1.3 0-2.5 0.5-3.4 1.5-5.4 5.3-3.4 31.6-3.4 39.5v6.6h-8.4v-25.2c0.1-6.6 2.3-22.4-7.2-22.3-8.8 0.1-7.2 17.2-7.2 22.9l0.2 24.6-8.8 0.1v-54l8.6 0.1c0.1 1.9 0 4.4 0 6.4 3-4.8 4-6 9.3-7.7zm530.8-21.4c6.6-0.6 13.6-0.3 20.3 0.3l-0.1 7.3c-17.3-0.2-22.3-4.7-21.9 15.2l21.2-0.1v7.6l-21.2 0.1v38.7h18.7c0 2.9 0.8 5.2-1 7.4l-2.1 0.1q-21 0.1-42 0v-7.5h17.2c0.3-12.6 0-26 0-38.7h-18.8v-7.7q9.4 0.1 18.8 0c-0.2-11.1-1.5-18.4 10.9-22.7zm-391.2 21.5q1.4-0.1 2.8-0.1c5.2-0.1 10.3 1.1 14.1 4.9 6.7 6.6 5.8 16.7 5.8 25.3 0 8.4 0 16.7-0.1 25.1l-9.2-0.1c0.1-7 0.1-14.4 0.2-21.3 0.3-15.4 1.2-29.3-19.3-25.1-9.5 4.7-7.1 16.5-7.3 25.4-0.1 7 0.1 14.1 0.2 21.1l-9.5-0.1c0.4-17.6 0.1-36.1 0.1-53.8h9.2l-0.1 7.4c4.5-5.7 6.3-7 13.1-8.7zm171.1-21.6l27.4-0.1v69.2q9.7 0 19.4 0.1v7.5l-17.8 0.1q-14.5 0-29-0.1v-7.5h18.1v-61.7h-18.1zm142.3 4.5h8.6l-0.1 18.5q11.8-0.1 23.6-0.1l-0.1 7.6h-23.4c-0.1 6.5-1.1 33 1.4 37.5 4.5 3.1 20.3-0.3 22.5 2.1l-0.1 6.6c-22.1 0.2-35.1 5.3-32.9-23.2 0.5-6.3 0.1-16.3 0.1-23l-16.9-0.1 0.1-7.7c18.6 0.2 17.4 0.1 17.2-18.2zm218.9 17.7c2.7-0.1 5.7 0.2 8.4 0.4l-0.1 8.4q-3.6-0.1-7.2-0.1c-17.6-0.1-19.1 8.6-18.4 23.3 0.2 4.6 0.1 10.2 0.1 14.9q10.3 0.2 20.6 0v7.6q-21.5 0.2-43 0.1l-1.3-0.4c-0.7-2-0.4-5-0.3-7.2l14.9-0.1v-38.6l-14.7-0.1v-7.6q11.7 0.1 23.3-0.1v12.5c4.1-9.2 7.7-11.9 17.7-13zm-618.3 0.7c9.3-0.2 18.8-0.1 28.1-0.1l-0.1 46.3q9.4 0 18.9 0.1l-0.1 7.5h-19q-14.1 0.1-28.2 0v-7.5h19.2c0.4-12.4 0.1-26.2 0.1-38.7l-18.9-0.1zm20.2-23.8c1.1 0 4.4-0.2 5.3 0.1 6.6 2.9 6.5 10.2 0 13-9.5 0.9-12.8-7.9-5.3-13.1z"/>
  </mask>
</svg>
