<svg version="1.2" xmlns="http://www.w3.org/2000/svg" viewBox="-19.5 -9 256 256" width="256" height="256">
  <style>.a{fill:#fff}.b{fill:#000}</style>
  <rect class="b" x="-19.5" y="-9" width="256" height="256" rx="48" ry="48"/>
  <path class="a" d="m107.9 6.5c1.3 1.3 15.3 38.7 17.1 43.5h55.1c-14.7 8.8-29.2 18.1-44.1 26.8l35 88.4c5.2 12.9 12.8 30.5 17 43.2h-33.2l-13.4-35.7c-10-0.3-21.2-0.1-31.3-0.1l-35.3 0.1c-4.6 11.1-9.3 24.3-13.6 35.7h-33.2l52-131.5c-14.3-8.2-29.9-18.2-44.2-26.9h55.2c5.3-14.1 11.2-29.7 16.9-43.5z"/>
  <path class="b" d="m107.7 82.3c0.9 0.7 21 56.7 23.8 63.7q-11.3 0.2-22.5 0.2l-24.1-0.1c6.9-20.7 15.4-43 22.8-63.8z"/>
</svg>
